<?xml version="1.0" encoding="UTF-8" standalone="no"?>
<!-- Created with Inkscape (http://www.inkscape.org/) -->

<svg
   version="1.1"
   id="svg1"
   width="290.92001"
   height="264.56"
   viewBox="0 0 290.92001 264.56"
   sodipodi:docname="logo_eigenheim.eps"
   xmlns:inkscape="http://www.inkscape.org/namespaces/inkscape"
   xmlns:sodipodi="http://sodipodi.sourceforge.net/DTD/sodipodi-0.dtd"
   xmlns="http://www.w3.org/2000/svg"
   xmlns:svg="http://www.w3.org/2000/svg">
  <defs
     id="defs1" />
  <sodipodi:namedview
     id="namedview1"
     pagecolor="#ffffff"
     bordercolor="#000000"
     borderopacity="0.25"
     inkscape:showpageshadow="2"
     inkscape:pageopacity="0.0"
     inkscape:pagecheckerboard="0"
     inkscape:deskcolor="#d1d1d1">
    <inkscape:page
       x="0"
       y="0"
       inkscape:label="1"
       id="page1"
       width="290.92001"
       height="264.56"
       margin="0"
       bleed="0" />
  </sodipodi:namedview>
  <g
     id="g1"
     inkscape:groupmode="layer"
     inkscape:label="1">
    <path
       id="path1"
       d="M 0,1984.18 V 0 H 2181.89 V 1984.18 H 0"
       style="fill:#c4161d;fill-opacity:1;fill-rule:evenodd;stroke:none"
       transform="matrix(0.13333333,0,0,-0.13333333,0,264.56)" />
    <path
       id="path2"
       d="M 0,1931.76 V 0 H 2131.06 V 1931.76 H 0"
       style="fill:#bdbcbc;fill-opacity:1;fill-rule:evenodd;stroke:none"
       transform="matrix(0.13333333,0,0,-0.13333333,0,264.56)" />
    <path
       id="path3"
       d="M 0,1151.86 V 439.629 H 1290.53 V 1151.86 H 0"
       style="fill:#c4161d;fill-opacity:1;fill-rule:evenodd;stroke:none"
       transform="matrix(0.13333333,0,0,-0.13333333,0,264.56)" />
    <path
       id="path4"
       d="m 493.492,1737.64 c -33.84,14.55 -68.543,20.17 -104.832,20.17 -141.117,0 -245.949,-94.33 -245.949,-237.89 0,-146.88 99.215,-242.06 245.949,-242.06 26.645,0 68.543,2.44 104.832,16.12 v 0 l -4.027,64.52 v 0 c -24.192,-13.68 -68.551,-21.75 -100.805,-21.75 -96.769,0 -174.961,72.57 -174.961,181.44 0,104.98 72.574,181.58 178.992,181.58 32.258,0 64.512,-10.51 95.18,-26.63 v 0 z m 79.063,-451.72 h 259.769 v 58.9 H 638.793 v 404.91 h -66.238 z m 334.8,0 h 259.775 v 58.9 H 975.895 v 153.21 h 175.095 v 58.18 H 975.895 v 135.5 h 191.235 v 58.02 H 907.355 Z m 363.015,0 h 66.1 v 205.63 h 40.32 v 0 c 34.7,0 56.44,0 76.6,-44.35 v 0 l 72.58,-161.28 h 75.02 l -87.12,183.89 v 0 c -16.12,29.81 -24.19,40.32 -45.92,48.38 v 0 0 0 c 53.99,9.79 96.76,50.11 96.76,106.56 0,111.31 -88.71,124.98 -181.44,124.98 v 0 h -112.9 z m 66.1,405.79 h 62.92 v 0 c 62.07,0 94.32,-26.64 94.32,-68.54 0,-44.5 -37.87,-72.72 -100.8,-72.72 v 0 h -56.44 z m 655.77,45.93 c -34.7,14.55 -68.54,20.17 -104.82,20.17 -141.27,0 -244.53,-94.33 -244.53,-237.89 0,-146.88 96.92,-242.06 244.53,-242.06 25.77,0 70.12,2.44 106.41,16.12 v 0 l -4.04,64.52 v 0 c -24.19,-13.68 -68.54,-21.75 -102.37,-21.75 -95.19,0 -173.53,72.57 -173.53,181.44 0,104.98 70.27,181.58 177.55,181.58 33.84,0 66.1,-10.51 94.33,-26.63 v 0 l 6.47,64.5"
       style="fill:#231f20;fill-opacity:1;fill-rule:evenodd;stroke:none"
       transform="matrix(0.13333333,0,0,-0.13333333,0,264.56)" />
    <path
       id="path5"
       d="m 1422.07,840.277 h 45.24 l 30.88,77.168 h 150.08 l 31.92,-77.168 h 47.91 l -130.4,306.033 h -45.24 z m 212.89,112.809 h -122.42 l 61.21,151.784 z m 354.02,183.714 c -23.94,7.99 -45.25,14.93 -88.86,14.93 -93.24,0 -162.43,-62.82 -162.43,-157.101 0,-97.422 65.01,-159.672 162.43,-159.672 47.9,0 75.56,7.981 93.15,14.348 v 0 158.625 H 1885.2 v -36.211 h 63.87 v -93.141 0 c -10.65,-1.039 -18.62,-5.316 -48.95,-5.316 -62.82,0 -114.53,47.894 -114.53,119.746 0,68.152 46.39,119.852 117.19,119.852 39.92,0 62.26,-7.99 83.54,-21.29 v 0 l 2.66,45.23"
       style="fill:#231f20;fill-opacity:1;fill-rule:evenodd;stroke:none"
       transform="matrix(0.13333333,0,0,-0.13333333,0,264.56)" />
    <path
       id="path6"
       d="m 199.73,147.891 c -7.917,0 -15.55,2.879 -22.75,9.785 -7.628,7.203 -12.667,17.422 -12.667,33.984 0,28.074 17.851,43.199 35.562,43.199 17.996,0 34.418,-13.531 34.418,-44.199 0,-28.523 -16.992,-42.769 -34.563,-42.769 z m -34.695,0.289 c 9.637,-13.25 23.465,-20.02 39.875,-20.02 28.664,0 52.856,20.735 52.856,63.645 0,41.476 -24.055,62.785 -53.571,62.785 -16.562,0 -30.246,-7.051 -39.882,-20.449 -0.29,5.91 -0.442,11.957 -0.719,17.863 H 142.27 c 0,-5.906 0.152,-11.953 0.293,-17.863 0.148,-6.047 0.429,-11.953 0.429,-17.852 V 81.9375 h 22.043 z m 114.324,-17.282 h 22.184 V 309.02 h -22.184 z m 121.832,56.59 c 0.571,-17.996 -2.878,-25.918 -7.492,-31.828 -5.617,-7.051 -13.824,-11.375 -24.906,-11.375 -14.844,0 -22.898,9.504 -22.898,19.582 0,8.93 4.898,16.992 18.425,21.309 3.75,1.164 9.942,2.601 28.235,2.601 1.718,0 4.597,0 8.636,-0.289 z m 1.289,-56.59 h 22.469 c -1.586,9.93 -2.308,21.161 -2.308,25.774 v 48.672 c 0,34.125 -15.688,49.105 -46.219,49.105 -14.402,0 -28.801,-4.32 -38.59,-10.367 v -20.305 c 10.508,8.059 22.891,11.953 34.27,11.953 18.429,0 28.937,-10.8 28.937,-29.812 0,-1.008 0,-1.871 0,-2.883 -5.469,0.293 -11.23,0.582 -18.715,0.582 -45.933,0 -59.332,-20.019 -59.332,-39.32 0,-9.934 4.469,-20.156 10.801,-26.055 5.758,-5.472 15.559,-9.797 30.387,-9.797 14.543,0 27.211,5.614 37.152,17.715 0,-5.183 0.289,-9.793 1.148,-15.262 z m 48.102,0 h 21.742 v 55.582 c 0,22.18 4.61,31.25 9.219,37.004 6.48,8.215 15.258,12.09 24.77,12.09 13.238,0 25.203,-9.207 25.203,-33.836 v -70.84 h 21.593 v 72.997 c 0,35.285 -17.566,50.695 -43.914,50.695 -14.406,0 -28.375,-6.621 -38.312,-19.731 -0.141,6.047 -0.43,10.657 -1.153,17.145 h -20.16 c 0.86,-25.785 1.012,-35.285 1.012,-38.598 z m 146.879,70.118 c 0.859,9.941 8.062,35.863 31.25,35.863 15.84,0 29.519,-10.941 30.094,-35.863 z m -0.43,-16.989 h 84.809 c 2.164,42.633 -17.996,70.422 -52.129,70.422 -29.656,0 -55.148,-22.613 -55.148,-62.789 0,-39.601 24.91,-63.5 60.187,-63.5 12.531,0 25.641,2.738 37.441,8.059 l 0.442,21.027 c -13.254,-8.207 -26.36,-11.379 -35.43,-11.379 -21.89,0 -38.453,15.27 -40.172,38.16 z m 109,-53.129 h 21.75 v 55.582 c 0,22.18 4.754,31.25 9.211,37.004 6.481,8.215 15.27,12.09 24.922,12.09 13.098,0 25.051,-9.207 25.051,-33.836 v -70.84 h 21.594 v 72.997 c 0,35.285 -17.414,50.695 -43.914,50.695 -14.399,0 -28.372,-6.621 -38.301,-19.731 -0.153,6.047 -0.43,10.657 -1.153,17.145 h -20.156 c 0.86,-25.785 0.996,-35.285 0.996,-38.598 z m 158.262,50.536 h 59.902 v 18.144 h -59.902 z m 117.07,-50.536 h 22.027 v 56.161 c 0,19.152 2.74,25.625 6.92,32.246 6.91,10.515 16.56,15.414 27.07,15.414 4.17,0 8.35,-0.719 12.09,-2.297 v 20.297 c -3.74,1.011 -7.77,1.578 -12.09,1.578 -15.27,0 -27.94,-7.481 -35.57,-23.035 -0.14,1.726 -0.43,6.047 -1.15,20.593 h -20.308 c 0.722,-13.675 1.011,-28.078 1.011,-38.449 z m 99.517,70.118 c 0.85,9.941 8.05,35.863 31.23,35.863 15.84,0 29.53,-10.941 30.1,-35.863 z m -0.3,-16.989 h 84.81 c 2.16,42.633 -18.14,70.422 -52.27,70.422 -29.66,0 -55.15,-22.613 -55.15,-62.789 0,-39.601 24.91,-63.5 60.19,-63.5 12.53,0 25.63,2.738 37.44,8.059 l 0.43,21.027 c -13.24,-8.207 -26.35,-11.379 -35.27,-11.379 -22.03,0 -38.6,15.27 -40.18,38.16 z m 182.74,3.461 c 0.57,-17.996 -2.89,-25.918 -7.5,-31.828 -5.61,-7.051 -13.81,-11.375 -24.91,-11.375 -14.82,0 -23.04,9.504 -23.04,19.582 0,8.93 5.04,16.992 18.58,21.309 3.74,1.164 9.78,2.601 28.22,2.601 1.73,0 4.61,0 8.65,-0.289 z m 1.29,-56.59 h 22.46 c -1.58,9.93 -2.3,21.161 -2.3,25.774 v 48.672 c 0,34.125 -15.69,49.105 -46.37,49.105 -14.26,0 -28.65,-4.32 -38.45,-10.367 v -20.305 c 10.52,8.059 22.76,11.953 34.28,11.953 18.29,0 28.95,-10.8 28.95,-29.812 0,-1.008 0,-1.871 0,-2.883 -5.48,0.293 -11.39,0.582 -18.73,0.582 -45.94,0 -59.33,-20.019 -59.33,-39.32 0,-9.934 4.47,-20.156 10.8,-26.055 5.76,-5.472 15.55,-9.797 30.39,-9.797 14.55,0 27.21,5.614 37.15,17.715 0,-5.183 0.29,-9.793 1.15,-15.262 z m 46.95,0 h 22.17 V 309.02 h -22.17 z m 47.23,152.637 h 23.9 v 24.766 h -23.9 z m 1.15,-152.637 h 21.74 V 251.57 h -21.74 z m 46.37,5.04 c 10.22,-5.04 22.03,-7.637 31.54,-7.637 28.36,0 43.05,16.844 43.05,36.578 0,13.098 -5.33,23.328 -22.17,32.258 l -11.1,6.191 c -4.74,2.453 -16.7,7.055 -16.7,18.293 0,7.922 6.62,15.547 19.44,15.547 4.18,0 12.67,-1.301 24.2,-6.48 l 2.3,18.14 c -11.38,4.18 -21.89,5.906 -28.51,5.906 -26.65,0 -40.76,-15.984 -40.76,-35.714 0,-10.512 3.03,-21.454 25.63,-33.844 l 10.95,-6.188 c 10.94,-6.05 13.26,-11.808 13.26,-17.133 0,-7.054 -7.21,-15.839 -20.88,-15.839 -6.35,0 -17.44,2.593 -28.96,9.367 z m 97.48,147.597 h 24.06 v 24.766 h -24.06 z m 1.16,-152.637 h 21.88 V 251.57 h -21.88 z m 67.53,70.118 c 0.88,9.941 8.07,35.863 31.25,35.863 15.84,0 29.53,-10.941 30.1,-35.863 z m -0.29,-16.989 h 84.83 c 2.16,42.633 -18.15,70.422 -52.28,70.422 -29.67,0 -55.15,-22.613 -55.15,-62.789 0,-39.601 24.92,-63.5 60.19,-63.5 12.53,0 25.63,2.738 37.44,8.059 l 0.43,21.027 c -13.25,-8.207 -26.35,-11.379 -35.27,-11.379 -22.03,0 -38.59,15.27 -40.19,38.16 z m 108.87,-53.129 h 22.03 v 56.161 c 0,19.152 2.73,25.625 6.91,32.246 6.91,10.515 16.57,15.414 27.07,15.414 4.18,0 8.21,-0.719 12.11,-2.297 v 20.297 c -3.9,1.011 -7.79,1.578 -12.11,1.578 -15.26,0 -27.93,-7.481 -35.55,-23.035 -0.16,1.726 -0.45,6.047 -1.31,20.593 h -20.16 c 0.72,-13.675 1.01,-28.078 1.01,-38.449 z m 99.5,70.118 c 0.87,9.941 8.07,35.863 31.25,35.863 15.84,0 29.52,-10.941 30.1,-35.863 z m -0.29,-16.989 h 84.82 c 2.16,42.633 -18.14,70.422 -52.26,70.422 -29.68,0 -55.16,-22.613 -55.16,-62.789 0,-39.601 24.91,-63.5 60.19,-63.5 12.53,0 25.63,2.738 37.45,8.059 l 0.42,21.027 c -13.25,-8.207 -26.35,-11.379 -35.28,-11.379 -22.03,0 -38.59,15.27 -40.18,38.16 z m 108.87,-53.129 h 21.89 v 55.582 c 0,22.18 4.6,31.25 9.07,37.004 6.62,8.215 15.26,12.09 24.92,12.09 13.25,0 25.19,-9.207 25.19,-33.836 v -70.84 h 21.47 v 72.997 c 0,35.285 -17.44,50.695 -43.93,50.695 -14.39,0 -28.37,-6.621 -38.31,-19.731 -0.14,6.047 -0.42,10.657 -1.14,17.145 h -20.17 c 0.86,-25.785 1.01,-35.285 1.01,-38.598 v -82.508"
       style="fill:#231f20;fill-opacity:1;fill-rule:evenodd;stroke:none"
       transform="matrix(0.13333333,0,0,-0.13333333,0,264.56)" />
    <path
       id="path7"
       d="m 174.824,925.059 c 8.352,30.515 24.477,51.121 37.578,60.191 9.512,6.613 16.852,8.348 21.172,8.348 8.059,0 13.969,-5.469 13.969,-14.981 0,-8.347 -5.473,-23.043 -19.871,-35.562 -11.242,-9.942 -29.379,-17.567 -52.848,-17.996 z m -2.594,-10.661 c 54.141,-0.863 98.2,27.5 98.2,59.622 0,16.117 -11.657,29.66 -34.41,29.66 -13.54,0 -25.489,-5.184 -36.872,-12.102 -34.558,-21.308 -56.878,-63.07 -56.878,-97.633 0,-19.726 6.343,-32.109 16.851,-41.039 7.781,-6.617 18.434,-10.504 30.391,-10.504 13.816,0 26.058,5.176 37.441,12.528 8.637,5.468 19.285,14.25 26.199,21.738 l -3.879,4.469 c -20.601,-16.852 -33.703,-20.16 -45.218,-20.16 -19.582,0 -33.703,12.382 -33.703,38.593 0,5.176 0.722,10.215 1.878,14.828 z M 353.949,878.98 340.273,866.156 c -2.3,-2.156 -5.179,-4.457 -8.062,-4.457 -2.879,0 -4.902,1.871 -4.902,4.895 0,1.863 0.582,4.019 1.164,5.754 l 37.871,131.472 -49.684,-7.203 -2.156,-6.187 5.18,0.722 c 1.296,0.149 2.738,0.282 4.027,0.282 5.762,0 8.644,-3.164 8.644,-7.625 0,-2.161 -0.574,-4.321 -1.156,-6.34 l -29.367,-103.68 c -1.883,-6.48 -2.453,-12.812 -2.453,-13.82 0,-10.371 6.773,-16.856 16.992,-16.856 3.172,0 6.481,0.727 10.66,2.883 2.879,1.734 10.512,7.344 17.282,14.402 l 14.398,14.832 z m -8.636,169.2 c 0,-9.66 7.777,-17.43 17.429,-17.43 9.653,0 17.571,7.77 17.571,17.43 0,9.64 -7.918,17.56 -17.571,17.56 -9.652,0 -17.429,-7.92 -17.429,-17.56 z m 82.796,-194.696 45.364,-10.371 c 10.078,-2.445 24.199,-6.183 24.199,-18.715 0,-9.652 -10.66,-27.5 -49.113,-27.5 -29.227,0 -39.735,14.829 -39.735,27.071 0,7.769 4.317,18.859 19.285,29.515 z m 34.286,59.473 c -11.383,0 -20.747,8.215 -20.747,24.621 0,10.078 5.184,29.379 14.985,41.039 7.629,9.227 15.121,12.242 22.461,12.242 12.527,0 20.742,-8.203 20.742,-21.164 0,-26.496 -15.992,-56.738 -37.441,-56.738 z m -41.911,-52.269 c -11.093,-6.629 -21.312,-15.551 -24.332,-18.872 -8.359,-9.496 -10.523,-16.988 -10.523,-22.75 0,-9.066 3.031,-15.55 11.812,-21.886 4.18,-3.16 12.672,-7.34 32.403,-9.504 5.469,-0.719 10.949,-1.004 16.418,-1.004 22.886,0 75.597,8.062 75.597,48.816 0,6.77 -1.871,11.953 -5.468,16.7 -3.168,4.179 -11.086,11.812 -39.75,18.582 l -24.907,5.898 c -10.511,2.59 -11.66,5.617 -11.66,9.07 0,2.45 1.442,5.481 6.481,7.918 l 13.816,6.633 c 21.309,0 40.609,8.348 53.711,21.02 12.527,12.242 16.422,23.035 16.422,33.988 0,5.609 -1.301,11.801 -3.168,16.988 l 23.465,-0.148 5.762,21.461 h -44.352 c -7.488,6.343 -16.992,10.222 -29.949,10.222 -16.989,0 -37.731,-8.207 -50.977,-20.59 -14.113,-13.105 -19.293,-26.492 -19.293,-38.593 0,-18.719 11.66,-34.418 28.219,-39.891 l -15.84,-11.516 c -7.34,-5.332 -9.793,-10.8 -9.793,-17.421 0,-5.625 2.164,-10.95 5.906,-15.121 z m 180,64.371 c 8.348,30.515 24.477,51.121 37.586,60.191 9.504,6.613 16.84,8.348 21.164,8.348 8.067,0 13.969,-5.469 13.969,-14.981 0,-8.347 -5.469,-23.043 -19.875,-35.562 -11.223,-9.942 -29.379,-17.567 -52.844,-17.996 z m -2.593,-10.661 c 54.14,-0.863 98.214,27.5 98.214,59.622 0,16.117 -11.671,29.66 -34.425,29.66 -13.528,0 -25.489,-5.184 -36.856,-12.102 -34.558,-21.308 -56.879,-63.07 -56.879,-97.633 0,-19.726 6.328,-32.109 16.844,-41.039 7.774,-6.617 18.434,-10.504 30.383,-10.504 13.82,0 26.058,5.176 37.441,12.528 8.637,5.468 19.301,14.25 26.211,21.738 l -3.89,4.469 c -20.594,-16.852 -33.704,-20.16 -45.223,-20.16 -19.578,0 -33.691,12.382 -33.691,38.593 0,5.176 0.722,10.215 1.871,14.828 z m 118.222,-69.261 h 27.078 l 10.223,35.133 c 4.75,16.554 17.418,42.628 29.656,59.328 17.434,23.898 30.68,35.281 34.418,37.871 4.907,3.461 8.934,4.469 11.528,4.469 6.047,0 9.648,-4.04 9.648,-9.079 0,-1.875 -0.434,-4.031 -1.012,-5.613 l -27.07,-95.328 c -1.441,-4.898 -2.16,-10.512 -2.16,-12.238 0,-10.223 6.328,-15.985 15.547,-15.985 4.324,0 9.941,1.289 18.144,6.481 9.938,6.332 18.578,14.109 26.637,24.336 l -5.316,5.039 c -4.762,-5.332 -8.789,-11.371 -14.981,-15.266 -3.023,-2.019 -4.457,-2.305 -6.051,-2.305 -3.597,0 -5.609,2.161 -5.609,5.329 0,2.449 0.43,3.597 1.289,6.91 l 25.629,88.418 c 2.309,8.211 3.168,15.84 3.168,17.859 0,14.113 -8.637,22.464 -20.727,22.464 -4.761,0 -7.058,-0.3 -16.562,-4.905 -3.75,-1.864 -8.926,-4.887 -21.891,-16.407 -9.066,-7.918 -19.437,-18.718 -25.629,-26.503 -4.609,-5.465 -8.066,-10.649 -12.386,-16.411 l 19.148,66.526 -50.398,-9.209 -1.442,-5.621 5.481,0.871 c 1,0.133 2.297,0.277 3.449,0.277 5.469,0 8.211,-3.019 8.211,-8.348 0,-1.582 -0.137,-5.042 -2.02,-11.816 l -36,-126.277"
       style="fill:#ffffff;fill-opacity:1;fill-rule:evenodd;stroke:none"
       transform="matrix(0.13333333,0,0,-0.13333333,0,264.56)" />
    <path
       id="path8"
       d="m 142.27,528.34 h 27.082 l 10.218,35.129 c 4.75,16.558 17.422,42.629 29.664,59.328 17.719,24.191 30.676,35.277 34.418,37.871 4.899,3.465 8.93,4.469 11.52,4.469 6.051,0 9.652,-4.039 9.652,-9.078 0,-1.871 -0.433,-4.032 -1.011,-5.61 l -27.071,-95.332 c -1.59,-5.621 -2.164,-9.941 -2.164,-12.101 0,-10.36 6.192,-16.118 15.555,-16.118 4.32,0 9.941,1.29 18.137,6.481 9.8,6.191 18.445,13.816 26.64,24.332 l -5.32,5.039 c -4.754,-5.328 -8.789,-11.371 -14.977,-15.266 -3.019,-2.015 -4.461,-2.308 -6.054,-2.308 -3.598,0 -5.606,2.164 -5.606,5.332 0,2.453 0.43,3.601 1.289,6.914 l 25.633,88.418 c 2.598,9.355 3.168,14.687 3.168,17.855 0,14.114 -8.641,22.461 -20.734,22.461 -4.754,0 -7.055,-0.289 -16.555,-4.894 -3.75,-1.871 -8.934,-4.895 -21.891,-16.414 -9.218,-8.071 -19.3,-18.719 -25.633,-26.5 -4.605,-5.465 -8.07,-10.653 -12.39,-16.41 l 42.191,147.312 -50.968,-9.945 -1.59,-5.754 c 4.609,0.867 7.636,1.144 9.363,1.144 6.336,0 9.074,-3.308 9.074,-7.625 0,-1.152 -0.285,-4.035 -1.879,-9.933 z m 215.859,79.922 c 8.355,30.515 24.484,51.117 37.586,60.183 9.504,6.621 16.848,8.352 21.164,8.352 8.07,0 13.973,-5.469 13.973,-14.981 0,-8.347 -5.469,-23.039 -19.872,-35.554 -11.23,-9.946 -29.378,-17.571 -52.851,-18 z m -2.586,-10.664 c 54.141,-0.86 98.207,27.5 98.207,59.621 0,16.121 -11.672,29.66 -34.418,29.66 -13.539,0 -25.488,-5.18 -36.859,-12.106 -34.563,-21.304 -56.883,-63.062 -56.883,-97.625 0,-19.726 6.336,-32.109 16.844,-41.039 7.777,-6.621 18.441,-10.515 30.386,-10.515 13.821,0 26.063,5.183 37.446,12.535 8.636,5.469 19.285,14.25 26.203,21.738 l -3.887,4.469 c -20.59,-16.852 -33.699,-20.156 -45.219,-20.156 -19.582,0 -33.691,12.379 -33.691,38.59 0,5.179 0.719,10.218 1.871,14.828 z M 537.27,562.18 523.594,549.355 c -2.309,-2.16 -5.192,-4.453 -8.071,-4.453 -2.882,0 -4.894,1.864 -4.894,4.883 0,1.871 0.57,4.031 1.152,5.762 l 37.871,131.473 -49.679,-7.2 -2.16,-6.191 5.179,0.715 c 1.301,0.152 2.738,0.293 4.039,0.293 5.762,0 8.645,-3.168 8.645,-7.625 0,-2.164 -0.582,-4.328 -1.164,-6.344 l -29.371,-103.68 c -1.871,-6.48 -2.45,-12.808 -2.45,-13.82 0,-10.371 6.774,-16.852 16.993,-16.852 3.168,0 6.476,0.719 10.66,2.883 2.879,1.731 10.508,7.34 17.277,14.399 l 14.399,14.832 z m -8.637,169.199 c 0,-9.652 7.769,-17.434 17.418,-17.434 9.652,0 17.574,7.782 17.574,17.434 0,9.637 -7.922,17.555 -17.574,17.555 -9.649,0 -17.418,-7.918 -17.418,-17.555 z M 580.18,528.34 h 26.933 l 11.95,41.316 c 6.621,22.766 23.902,53.723 48.378,78.629 14.551,14.543 21.461,16.852 26.5,16.852 5.043,0 8.348,-3.321 8.348,-9.078 0,-2.735 0,-5.18 -2.586,-14.539 L 667.441,528.34 h 27.223 l 11.367,39.598 c 8.071,28.078 28.805,62.781 52.563,85.386 10.949,10.371 17.426,11.813 21.89,11.813 6.629,0 9.36,-3.457 9.36,-8.496 0,-1.153 -0.571,-6.621 -2.594,-13.825 l -25.199,-87.699 c -1.871,-6.34 -2.156,-9.066 -2.156,-11.808 0,-10.223 6.906,-16.993 16.269,-16.993 9.941,0 17.707,6.77 22.316,10.223 5.04,3.75 14.551,12.816 21.754,21.746 l -5.332,4.613 C 810,556.27 801.793,548.777 798.48,546.766 c -1.871,-1.153 -3.445,-1.59 -4.75,-1.59 -3.457,0 -5.468,2.308 -5.468,5.484 0,0.57 0,2.156 1.441,7.481 l 20.727,73.011 c 4.761,16.989 6.484,22.172 6.484,32.254 0,15.555 -9.215,23.473 -20.59,23.473 -11.09,0 -19.73,-6.481 -27.07,-12.106 -11.383,-8.484 -31.395,-28.644 -48.379,-53.554 l 4.316,14.972 c 3.164,11.375 4.321,20.739 4.321,25.778 0,16.269 -9.36,24.476 -20.449,24.476 -7.348,0 -16.993,-1.3 -40.61,-24.336 -10.508,-10.218 -20.742,-22.168 -35.422,-43.492 l 19.293,68.403 -50.543,-9.93 -1.297,-5.332 6.047,1.148 c 1.012,0.149 2.02,0.293 2.883,0.293 5.621,0 9.066,-3.601 9.066,-8.64 0,-3.02 -1.007,-6.192 -1.871,-8.782 L 580.18,528.34"
       style="fill:#ffffff;fill-opacity:1;fill-rule:evenodd;stroke:none"
       transform="matrix(0.13333333,0,0,-0.13333333,0,264.56)" />
    <path
       id="path9"
       d="m 903.402,917.359 h 73.868 l 5.421,20.676 h -74.488 l -4.801,-20.676"
       style="fill:#ffffff;fill-opacity:1;fill-rule:evenodd;stroke:none"
       transform="matrix(0.13333333,0,0,-0.13333333,0,264.56)" />
  </g>
</svg>
