<?xml version="1.0" encoding="UTF-8" standalone="no"?>
<!-- Created with Inkscape (http://www.inkscape.org/) -->

<svg
   version="1.1"
   id="svg1"
   width="290.92001"
   height="264.56"
   viewBox="0 0 290.92001 264.56"
   sodipodi:docname="logo_bau.eps"
   xmlns:inkscape="http://www.inkscape.org/namespaces/inkscape"
   xmlns:sodipodi="http://sodipodi.sourceforge.net/DTD/sodipodi-0.dtd"
   xmlns="http://www.w3.org/2000/svg"
   xmlns:svg="http://www.w3.org/2000/svg">
  <defs
     id="defs1" />
  <sodipodi:namedview
     id="namedview1"
     pagecolor="#ffffff"
     bordercolor="#000000"
     borderopacity="0.25"
     inkscape:showpageshadow="2"
     inkscape:pageopacity="0.0"
     inkscape:pagecheckerboard="0"
     inkscape:deskcolor="#d1d1d1">
    <inkscape:page
       x="0"
       y="0"
       inkscape:label="1"
       id="page1"
       width="290.92001"
       height="264.56"
       margin="0"
       bleed="0" />
  </sodipodi:namedview>
  <g
     id="g1"
     inkscape:groupmode="layer"
     inkscape:label="1">
    <path
       id="path1"
       d="M 0,1984.18 V 0 H 2181.89 V 1984.18 H 0"
       style="fill:#213a89;fill-opacity:1;fill-rule:evenodd;stroke:none"
       transform="matrix(0.13333333,0,0,-0.13333333,0,264.56)" />
    <path
       id="path2"
       d="M 0,1931.76 V 0 H 2131.06 V 1931.76 H 0"
       style="fill:#bdbcbc;fill-opacity:1;fill-rule:evenodd;stroke:none"
       transform="matrix(0.13333333,0,0,-0.13333333,0,264.56)" />
    <path
       id="path3"
       d="M 0,1151.86 V 439.629 H 1290.53 V 1151.86 H 0"
       style="fill:#213a89;fill-opacity:1;fill-rule:evenodd;stroke:none"
       transform="matrix(0.13333333,0,0,-0.13333333,0,264.56)" />
    <path
       id="path4"
       d="m 181.43,646.445 34.152,119.114 c 8.129,27.371 20.731,42.41 36.992,51.754 7.321,4.21 15.18,6.371 22.09,6.371 20.457,0 37.672,-13.821 37.672,-48.508 0,-35.371 -13.281,-76.563 -32.527,-104.074 -21.137,-29.254 -42.547,-37.938 -62.196,-37.938 -14.093,0 -26.554,4.758 -36.183,13.281 z m -39.16,1.223 c 23.855,-19.367 50.683,-27.773 72.902,-27.773 37.402,0 63.961,20.457 88.348,45.25 37.132,37.668 52.851,80.089 52.851,115.175 0,47.024 -29.808,72.91 -61.793,72.91 -12.055,0 -24.113,-2.71 -41.594,-14.089 -7.863,-5.157 -15.449,-11.524 -21.824,-18.703 l 43.231,150.949 -73.305,-13.543 -2.711,-8.41 8.129,1.218 c 1.488,0 2.976,0.278 4.469,0.278 8.808,0 13.961,-5.16 13.961,-13.008 0,-2.715 -0.68,-5.422 -1.493,-8.137 z m 287.402,35.496 c 0,28.731 11.652,53.399 13.82,58.547 15.313,39.844 39.43,71.141 51.899,81.707 14.359,12.598 22.902,14.766 30.082,14.766 15.449,0 27.781,-9.344 27.781,-35.633 0,-14.504 -2.981,-35.91 -11.25,-59.36 -8.676,-25.601 -15.852,-38.339 -28.59,-54.605 -24.664,-30.742 -44.582,-37.121 -56.371,-37.121 -15.719,0 -27.371,10.293 -27.371,31.699 z m 91.601,-6.355 c -3.929,-9.907 -6.101,-21.68 -6.101,-29.543 0,-18.028 9.762,-25.887 21.41,-25.887 11.25,0 28.461,2.723 63.691,45.262 l -7.183,7.175 c -10.977,-12.996 -18.699,-19.234 -23.035,-22.351 -3.524,-2.703 -6.914,-3.527 -9.352,-3.527 -3.789,0 -5.961,2.445 -5.961,7.191 0,3.379 0.949,6.629 2.707,12.996 l 53.114,183.879 -41.594,-5.688 -4.336,-17.476 c -8.403,15.039 -23.172,23.433 -39.434,23.433 -18.695,0 -47.015,-8.933 -82.379,-49.722 -36.449,-42.824 -51.769,-90.656 -51.769,-121.821 0,-32.792 14.101,-50.542 26.832,-56.628 4.472,-1.778 11.789,-3.664 19.242,-3.664 9.617,0 21.406,2.445 39.84,14.218 9.074,5.969 27.777,21.953 44.308,42.153 z m 281.571,34.414 -14.504,-49.192 c -1.215,-4.746 -2.301,-10.168 -2.301,-15.027 0,-16.543 9.625,-25.625 24.934,-25.625 14.226,0 24.386,8.141 34.961,16.543 7.05,5.816 16.937,15.703 26.832,28.98 l -8.133,6.645 c -17.481,-20.188 -22.899,-25.332 -29.809,-25.332 -4.472,0 -7.859,2.976 -7.859,7.848 0,2.445 0.676,3.937 0.945,5.695 l 54.602,187.812 -39.289,-0.273 -16.801,-57.586 c -6.91,-24.398 -17.481,-47.563 -35.91,-74.809 -15.992,-23.433 -40.114,-49.05 -48.918,-56.629 -10.164,-8.41 -16.805,-9.89 -21.004,-9.89 -9.352,0 -14.77,5.418 -14.77,14.097 0,3.372 0.813,6.36 1.489,9.336 l 40.113,137.817 c 2.976,10.84 3.519,13.816 3.519,17.742 0,13.555 -8.671,22.898 -25.878,22.898 -8.403,0 -17.754,-1.753 -35.227,-16.796 -3.934,-2.977 -18.434,-18.164 -29.543,-33.204 l 8.398,-6.636 c 9.352,13.281 20.872,23.843 24.391,26.289 2.711,1.758 5.828,2.715 8.129,2.715 5.152,0 8.129,-3.118 8.129,-7.59 0,-1.77 -0.27,-3.938 -0.809,-5.696 L 668.969,675.984 c -2.438,-7.859 -5.418,-16.929 -5.418,-25.066 0,-19.238 11.781,-30.48 30.75,-30.48 10.574,0 25.613,3.925 41.601,15.988 15.719,11.512 41.871,37.676 66.942,74.797"
       style="fill:#ffffff;fill-opacity:1;fill-rule:evenodd;stroke:none"
       transform="matrix(0.13333333,0,0,-0.13333333,0,264.56)" />
    <path
       id="path5"
       d="m 493.492,1738.37 c -33.84,14.54 -68.543,20.15 -104.832,20.15 -141.117,0 -245.949,-94.31 -245.949,-237.88 0,-146.88 99.215,-242.07 245.949,-242.07 26.645,0 68.543,2.45 104.832,16.13 v 0 l -4.027,64.52 v 0 c -24.192,-13.68 -68.551,-21.75 -100.805,-21.75 -96.769,0 -174.961,72.58 -174.961,181.44 0,104.98 72.574,181.59 178.992,181.59 32.258,0 64.512,-10.52 95.18,-26.64 v 0 z m 79.063,-451.73 h 259.769 v 58.9 H 638.793 v 404.92 h -66.238 z m 334.8,0 h 259.775 v 58.9 H 975.895 v 153.21 h 175.095 v 58.18 H 975.895 v 135.5 h 191.235 v 58.03 H 907.355 Z m 363.015,0 h 66.1 v 205.63 h 40.32 v 0 c 34.7,0 56.44,0 76.6,-44.35 v 0 l 72.58,-161.28 h 75.02 l -87.12,183.89 v 0 c -16.12,29.81 -24.19,40.32 -45.92,48.38 v 0 0 0 c 53.99,9.79 96.76,50.11 96.76,106.56 0,111.31 -88.71,124.99 -181.44,124.99 v 0 h -112.9 z m 66.1,405.79 h 62.92 v 0 c 62.07,0 94.32,-26.64 94.32,-68.54 0,-44.5 -37.87,-72.72 -100.8,-72.72 v 0 h -56.44 z m 655.77,45.94 c -34.7,14.54 -68.54,20.15 -104.82,20.15 -141.27,0 -244.53,-94.31 -244.53,-237.88 0,-146.88 96.92,-242.07 244.53,-242.07 25.77,0 70.12,2.45 106.41,16.13 v 0 l -4.04,64.52 v 0 c -24.19,-13.68 -68.54,-21.75 -102.37,-21.75 -95.19,0 -173.53,72.58 -173.53,181.44 0,104.98 70.27,181.59 177.55,181.59 33.84,0 66.1,-10.52 94.33,-26.64 v 0 l 6.47,64.51"
       style="fill:#231f20;fill-opacity:1;fill-rule:evenodd;stroke:none"
       transform="matrix(0.13333333,0,0,-0.13333333,0,264.56)" />
    <path
       id="path6"
       d="m 1422.79,840.273 h 45.24 l 30.88,77.168 h 150.07 l 31.93,-77.168 h 47.91 l -130.4,306.037 h -45.23 z m 212.9,112.813 h -122.42 l 61.21,151.784 z m 354.01,183.724 c -23.94,7.98 -45.23,14.92 -88.86,14.92 -93.24,0 -162.43,-62.82 -162.43,-157.101 0,-97.422 65.01,-159.668 162.43,-159.668 47.89,0 75.55,7.977 93.14,14.348 v 0 158.621 h -108.06 v -36.211 h 63.86 v -93.145 0 c -10.64,-1.035 -18.61,-5.32 -48.94,-5.32 -62.82,0 -114.53,47.898 -114.53,119.754 0,68.152 46.38,119.852 117.19,119.852 39.92,0 62.26,-7.99 83.55,-21.29 v 0 l 2.65,45.24"
       style="fill:#231f20;fill-opacity:1;fill-rule:evenodd;stroke:none"
       transform="matrix(0.13333333,0,0,-0.13333333,0,264.56)" />
    <path
       id="path7"
       d="m 142.27,130.898 h 21.753 v 56.165 c 0,19.148 3.743,27.925 8.489,34.546 6.48,8.789 14.261,12.387 23.191,12.387 13.817,0 21.449,-7.492 24.617,-20.305 0.719,-2.597 1.442,-6.472 1.442,-17.421 v -65.372 h 21.601 v 67.676 c 0,28.086 -6.332,37.727 -14.691,45.071 -6.91,6.05 -15.84,9.5 -27.07,9.5 -15.118,0 -28.512,-6.766 -37.731,-19.004 v 72.863 H 142.27 Z m 181.164,14.68 c -18.004,0 -36.442,15.406 -36.442,45.36 0,23.476 12.957,44.933 36.289,44.933 26.641,0 37.149,-26.644 37.149,-45.219 0,-24.05 -13.239,-45.074 -36.996,-45.074 z m 0.714,-17.277 c 33.551,0 59.477,24.765 59.477,62.207 0,37.722 -25.781,62.637 -60.484,62.637 -33.266,0 -59.328,-24.915 -59.328,-62.493 0,-37.429 25.488,-62.351 60.335,-62.351 z m 165.024,5.762 -1.731,20.441 c -11.23,-5.031 -20.726,-6.613 -27.07,-6.613 -18.578,0 -36.289,16.125 -36.289,41.894 0,27.942 17.711,44.07 39.313,44.07 7.636,0 15.265,-2.449 21.593,-6.765 l 1.305,20.723 c -8.063,3.605 -16.418,5.332 -25.199,5.332 -34.703,0 -59.762,-24.481 -59.762,-62.786 0,-38.296 24.906,-61.914 60.481,-61.914 9.5,0 18.578,1.868 27.359,5.618 z m 23.328,-3.165 h 21.742 v 56.165 c 0,19.148 3.75,27.925 8.5,34.546 6.481,8.789 14.25,12.387 23.18,12.387 13.828,0 21.461,-7.492 24.629,-20.305 0.722,-2.597 1.441,-6.472 1.441,-17.421 v -65.372 h 21.602 v 67.676 c 0,28.086 -6.344,37.727 -14.692,45.071 -6.91,6.05 -15.839,9.5 -27.07,9.5 -15.117,0 -28.519,-6.766 -37.73,-19.004 v 72.863 H 512.5 Z m 147.02,50.11 h 59.332 v 17.847 H 659.52 Z m 220.902,-50.254 h 21.598 c -0.579,7.195 -0.715,9.219 -0.715,30.957 v 89.273 h -21.754 v -57.449 c 0,-34.707 -17.996,-47.957 -33.551,-47.957 -8.93,0 -17.848,5.192 -22.316,13.973 -1.731,3.301 -3.743,7.773 -3.743,26.926 v 64.507 H 798.48 v -73.14 c 0,-19.59 5.192,-30.539 10.801,-36.867 4.75,-5.196 12.961,-10.079 22.75,-11.961 3.032,-0.571 6.199,-0.864 9.219,-0.864 14.836,0 27.945,5.766 38.594,18.293 0,-5.332 0.289,-10.371 0.578,-15.691 z m 47.371,0.144 h 21.598 v 55 c 0,22.04 4.472,30.957 9.082,36.582 6.476,8.204 15.121,12.102 24.48,12.102 13.098,0 25.047,-9.082 25.047,-33.566 v -70.118 h 21.31 v 72.278 c 0,35 -17.42,50.262 -43.478,50.262 -14.262,0 -28.078,-6.622 -38.019,-19.727 0,6.184 -0.29,10.652 -1.012,17.141 h -20.008 c 0.859,-25.5 1,-34.993 1,-38.164 z m 179.567,17.129 c -16.56,0 -33.12,13.25 -33.12,43.059 0,30.242 16.13,43.055 32.98,43.055 17.57,0 35.28,-15.403 35.28,-42.481 0,-28.808 -17.99,-43.633 -35.14,-43.633 z m 35.28,-17.129 h 21.6 c -0.72,8.352 -1.01,12.52 -1.01,31.243 v 144.863 h -21.45 v -73.867 c -9.79,13.679 -23.33,20.301 -37.87,20.301 -28.52,0 -53.14,-21.458 -53.14,-62.059 0,-40.609 25.93,-63.078 52.7,-63.078 13.68,0 27.35,6.047 38.31,19.726 -0.14,-6.191 0.29,-11.953 0.86,-17.129 z m 207.94,0.286 0.15,18.289 c -5.19,-2.598 -10.66,-3.743 -13.98,-3.743 -7.48,0 -13.39,2.446 -16.56,9.653 -0.43,1.289 -1.72,2.871 -1.72,20.437 v 57.598 h 31.39 v 17.434 h -31.39 v 35.125 l -21.6,-7.625 v -27.661 h -26.64 v -16.98 h 26.79 v -58.613 c 0,-24.754 3.02,-29.953 5.61,-33.985 4.89,-7.336 13.97,-12.812 28.66,-12.812 5.76,0 12.39,0.871 19.29,2.883 z m 20.01,150.918 h 23.76 v 24.324 h -23.76 z m 1.16,-151.204 h 21.61 v 119.524 h -21.61 z m 66.81,69.407 c 0.88,9.929 8.08,35.566 30.96,35.566 15.7,0 29.23,-10.805 29.81,-35.566 z m -0.29,-16.848 h 83.96 c 2.16,42.324 -17.86,69.688 -51.7,69.688 -29.38,0 -54.58,-22.313 -54.58,-62.059 0,-39.172 24.63,-62.934 59.62,-62.934 12.38,0 25.34,2.746 36.87,8.071 l 0.43,20.742 c -12.95,-8.07 -25.92,-11.235 -34.85,-11.235 -21.75,0 -38.16,15.122 -39.75,37.727 z m 122.69,-52.559 h 21.47 v 102.52 h 30.8 v 17.141 h -30.8 v 11.523 c 0,21.309 8.48,27.352 20.01,27.352 2.6,0 6.91,-0.579 10.79,-1.582 l 1.01,18.718 c -4.61,1.157 -9.36,1.731 -14.11,1.731 -16.99,0 -26.93,-6.192 -32.98,-15.555 -3.16,-5.039 -6.19,-11.945 -6.19,-30.812 v -11.082 h -27.78 v -17.141 h 27.78 z m 127.59,16.993 c -17.42,0 -35.28,15.117 -35.28,43.195 0,27.793 18.14,43.055 34.7,43.055 17.14,0 33.55,-13.68 33.55,-42.911 0,-30.378 -16.56,-43.339 -32.97,-43.339 z m -56.87,-16.993 h 21.01 c 0.58,7.051 0.72,11.231 1.01,17.422 10.51,-13.547 24.91,-20.168 38.88,-20.168 26.64,0 52.28,21.176 52.28,64.375 0,38.879 -25.5,60.911 -53.28,60.911 -13.98,0 -27.66,-6.622 -37.74,-19.875 v 73.441 h -21.89 v -145 c 0.16,-10.371 0.16,-20.891 -0.27,-31.106 z m 208.79,56.004 c 0.57,-17.839 -2.88,-25.625 -7.49,-31.519 -5.46,-6.926 -13.84,-11.242 -24.76,-11.242 -14.54,0 -22.62,9.355 -22.62,19.433 0,8.789 4.9,16.856 18.15,21.035 3.88,1.145 9.94,2.586 28.08,2.586 1.72,0 4.6,0 8.64,-0.293 z m 1.29,-56.004 h 22.18 c -1.58,9.786 -2.3,21.016 -2.3,25.481 v 48.242 c 0,33.836 -15.55,48.68 -45.8,48.68 -14.24,0 -28.5,-4.324 -38.16,-10.371 v -20.02 c 10.37,7.922 22.61,11.809 34,11.809 18.13,0 28.65,-10.801 28.65,-29.524 0,-1.007 0,-1.863 -0.15,-2.882 -5.32,0.292 -11.08,0.585 -18.43,0.585 -45.52,0 -58.76,-19.734 -58.76,-38.882 0,-9.946 4.47,-20.02 10.66,-25.786 5.76,-5.464 15.42,-9.785 30.1,-9.785 14.25,0 26.93,5.618 36.86,17.571 0,-5.184 0.29,-9.649 1.15,-15.118 z m 127.31,-0.144 h 21.59 c -0.58,7.195 -0.72,9.219 -0.72,30.957 v 89.273 h -21.75 v -57.449 c 0,-34.707 -18,-47.957 -33.55,-47.957 -8.92,0 -17.85,5.192 -22.32,13.973 -1.73,3.301 -3.73,7.773 -3.73,26.926 v 64.507 h -21.46 v -73.14 c 0,-19.59 5.18,-30.539 10.8,-36.867 4.74,-5.196 12.95,-10.079 22.75,-11.961 3.02,-0.571 6.19,-0.864 9.22,-0.864 14.82,0 27.93,5.766 38.58,18.293 0,-5.332 0.29,-10.371 0.59,-15.691"
       style="fill:#231f20;fill-opacity:1;fill-rule:evenodd;stroke:none"
       transform="matrix(0.13333333,0,0,-0.13333333,0,264.56)" />
  </g>
</svg>
