<?xml version="1.0" encoding="UTF-8" standalone="no"?>
<!-- Created with Inkscape (http://www.inkscape.org/) -->

<svg
   version="1.1"
   id="svg1"
   width="290.93332"
   height="264.56"
   viewBox="0 0 290.93332 264.56"
   sodipodi:docname="logo_beton-trenn.eps"
   xmlns:inkscape="http://www.inkscape.org/namespaces/inkscape"
   xmlns:sodipodi="http://sodipodi.sourceforge.net/DTD/sodipodi-0.dtd"
   xmlns="http://www.w3.org/2000/svg"
   xmlns:svg="http://www.w3.org/2000/svg">
  <defs
     id="defs1" />
  <sodipodi:namedview
     id="namedview1"
     pagecolor="#ffffff"
     bordercolor="#000000"
     borderopacity="0.25"
     inkscape:showpageshadow="2"
     inkscape:pageopacity="0.0"
     inkscape:pagecheckerboard="0"
     inkscape:deskcolor="#d1d1d1">
    <inkscape:page
       x="0"
       y="0"
       inkscape:label="1"
       id="page1"
       width="290.93332"
       height="264.56"
       margin="0"
       bleed="0" />
  </sodipodi:namedview>
  <g
     id="g1"
     inkscape:groupmode="layer"
     inkscape:label="1">
    <path
       id="path1"
       d="M 0.289063,1984.18 V 0 H 2182.03 V 1984.18 H 0.289063"
       style="fill:#00aaaf;fill-opacity:1;fill-rule:evenodd;stroke:none"
       transform="matrix(0.13333333,0,0,-0.13333333,0,264.56)" />
    <path
       id="path2"
       d="M 0,1934.21 V 0 H 2133.5 V 1934.21 H 0"
       style="fill:#bdbcbc;fill-opacity:1;fill-rule:evenodd;stroke:none"
       transform="matrix(0.13333333,0,0,-0.13333333,0,264.56)" />
    <path
       id="path3"
       d="M 0,1151.86 V 441.934 H 1290.67 V 1151.86 H 0"
       style="fill:#00aaaf;fill-opacity:1;fill-rule:evenodd;stroke:none"
       transform="matrix(0.13333333,0,0,-0.13333333,0,264.56)" />
    <path
       id="path4"
       d="m 493.629,1738.23 c -33.84,14.54 -68.539,20.16 -104.828,20.16 -141.121,0 -245.953,-94.32 -245.953,-237.89 0,-146.89 99.215,-242.06 245.953,-242.06 26.64,0 68.539,2.44 104.828,16.12 v 0 l -4.027,64.52 v 0 c -24.192,-13.68 -68.551,-21.76 -100.801,-21.76 -96.774,0 -174.961,72.59 -174.961,181.45 0,104.98 72.57,181.59 178.988,181.59 32.262,0 64.512,-10.52 95.18,-26.64 v 0 z m 79.062,-451.74 h 259.77 v 58.91 H 638.93 v 404.92 h -66.239 z m 334.801,0 h 259.768 v 58.91 H 976.031 v 153.2 h 175.099 v 58.19 H 976.031 v 135.5 h 191.229 v 58.03 H 907.492 Z m 363.008,0 h 66.11 v 205.64 h 40.32 v 0 c 34.7,0 56.43,0 76.6,-44.36 v 0 l 72.58,-161.28 h 75.02 l -87.12,183.9 v 0 c -16.12,29.81 -24.19,40.31 -45.93,48.38 v 0 0 0 c 53.99,9.79 96.77,50.11 96.77,106.56 0,111.31 -88.71,124.99 -181.45,124.99 v 0 h -112.9 z m 66.11,405.8 h 62.92 v 0 c 62.07,0 94.31,-26.65 94.31,-68.54 0,-44.5 -37.87,-72.73 -100.8,-72.73 v 0 h -56.43 z m 655.77,45.94 c -34.7,14.54 -68.55,20.16 -104.83,20.16 -141.26,0 -244.52,-94.32 -244.52,-237.89 0,-146.89 96.92,-242.06 244.52,-242.06 25.77,0 70.13,2.44 106.42,16.12 v 0 l -4.04,64.52 v 0 c -24.19,-13.68 -68.55,-21.76 -102.38,-21.76 -95.18,0 -173.52,72.59 -173.52,181.45 0,104.98 70.26,181.59 177.55,181.59 33.83,0 66.1,-10.52 94.32,-26.64 v 0 l 6.48,64.51"
       style="fill:#231f20;fill-opacity:1;fill-rule:evenodd;stroke:none"
       transform="matrix(0.13333333,0,0,-0.13333333,0,264.56)" />
    <path
       id="path5"
       d="m 1422.93,840.137 h 45.24 l 30.88,77.176 h 150.07 l 31.93,-77.176 h 47.91 l -130.4,306.033 h -45.24 z m 212.89,112.812 H 1513.4 l 61.21,151.781 z m 354.02,183.721 c -23.95,7.98 -45.23,14.92 -88.87,14.92 -93.23,0 -162.42,-62.82 -162.42,-157.098 0,-97.422 65.01,-159.679 162.42,-159.679 47.9,0 75.56,7.992 93.15,14.359 v 0 158.608 h -108.06 v -36.198 h 63.86 v -93.144 0 c -10.64,-1.036 -18.62,-5.325 -48.95,-5.325 -62.81,0 -114.52,47.903 -114.52,119.758 0,68.149 46.38,119.849 117.19,119.849 39.92,0 62.25,-7.99 83.54,-21.29 v 0 l 2.66,45.24"
       style="fill:#231f20;fill-opacity:1;fill-rule:evenodd;stroke:none"
       transform="matrix(0.13333333,0,0,-0.13333333,0,264.56)" />
    <path
       id="path6"
       d="m 915.777,899.941 h 73.871 l 5.422,20.672 h -74.488 l -4.805,-20.672"
       style="fill:#ffffff;fill-opacity:1;fill-rule:evenodd;stroke:none"
       transform="matrix(0.13333333,0,0,-0.13333333,0,264.56)" />
    <path
       id="path7"
       d="m 170.336,843.23 23.644,82.61 c 5.668,18.965 14.411,29.433 25.739,35.945 4.922,2.832 10.461,4.317 15.261,4.317 14.161,0 26.098,-9.598 26.098,-33.614 0,-24.5 -9.226,-53.054 -22.648,-72.144 -14.532,-20.317 -29.43,-26.36 -42.969,-26.36 -9.852,0 -18.473,3.329 -25.125,9.246 z m -27.207,0.743 c 16.5,-13.309 35.09,-19.215 50.613,-19.215 25.977,0 44.317,14.273 61.309,31.402 25.726,26.098 36.57,55.645 36.57,79.903 0,32.628 -20.691,50.597 -42.851,50.597 -8.368,0 -16.743,-1.847 -28.93,-9.855 -5.422,-3.563 -10.59,-7.996 -15.02,-12.918 l 29.918,104.773 -50.851,-9.48 -1.844,-5.79 5.656,0.74 c 0.989,0 2.102,0.25 3.078,0.25 6.039,0 9.614,-3.57 9.614,-8.99 0,-1.85 -0.371,-3.82 -0.993,-5.66 z m 205.738,63.644 c 8.371,30.528 24.75,50.977 37.672,59.961 9.359,6.766 16.754,8.367 21.18,8.367 8.133,0 13.914,-5.418 13.914,-14.765 0,-8.375 -5.41,-23.27 -19.824,-35.828 -11.329,-9.856 -29.297,-17.618 -52.942,-17.735 z m -2.457,-10.715 c 53.918,-0.847 98,27.453 98,59.602 0,16.121 -11.699,29.551 -34.23,29.551 -13.539,0 -25.481,-5.059 -36.813,-12.2 -34.469,-21.05 -56.879,-62.917 -56.879,-97.382 0,-19.707 6.282,-32.02 16.739,-41.004 7.882,-6.77 18.351,-10.457 30.293,-10.457 14.039,0 26.097,5.039 37.668,12.547 8.382,5.418 19.214,14.16 26.113,21.55 l -3.942,4.563 c -20.562,-16.875 -33.742,-20.07 -45.191,-20.07 -19.699,0 -33.605,12.304 -33.605,38.527 0,4.93 0.609,10.223 1.847,14.773 z m 184.68,-30.535 c -12.559,-15.019 -15.891,-17.715 -18.235,-19.57 -3.808,-2.957 -5.906,-3.567 -7.507,-3.567 -4.18,0 -6.77,2.708 -6.77,6.399 0,0.859 0,2.344 1.731,8.254 l 32.621,113.269 h 23.027 l 3.941,12.793 H 536.5 l 10.84,38.285 h -9.848 C 527.52,999.336 510.277,985.184 486.02,979.277 l -2.211,-8.125 h 21.671 l -29.8,-104.289 c -2.09,-6.765 -4.43,-13.418 -4.43,-20.8 0,-16.629 12.68,-21.051 18.961,-21.051 4.43,0 8.855,1.226 14.277,5.039 17.614,12.554 30.914,33.621 30.914,33.621 z m 97.996,-33.476 c -7.254,0 -15.879,4.922 -19.816,12.793 -3.2,6.035 -5.672,14.902 -5.672,29.55 0,8.25 1.851,25.243 5.172,38.172 5.05,20.93 14.531,37.922 23.273,47.774 9.848,11.203 19.086,14.765 27.574,14.765 9.481,0 17.121,-5.164 20.692,-12.675 1.972,-3.829 3.812,-10.34 3.812,-20.809 0,-22.531 -5.043,-50.606 -15.762,-72.512 -6.64,-14.043 -14.398,-23.64 -20.8,-29.433 -6.278,-5.664 -12.442,-7.625 -18.473,-7.625 z m -4.559,-8.254 c 9.852,0 19.215,2.207 31.153,8.742 21.058,11.941 38.418,31.152 47.402,51.465 5.297,11.445 8.617,25.847 8.617,40.996 0,19.812 -6.277,35.34 -14.398,45.312 -7.758,8.985 -20.563,15.262 -34.485,15.262 -10.336,0 -18.828,-2.098 -28.929,-7.266 -13.789,-6.89 -24.246,-15.507 -34.715,-28.925 -17.481,-22.539 -24.383,-44.95 -24.383,-64.16 0,-25.965 7.883,-40.743 17.981,-49.735 8.738,-7.754 19.207,-11.691 31.757,-11.691 z m 104.293,3.086 h 26.957 l 10.34,35.082 c 4.801,16.629 17.36,42.722 29.676,59.215 17.355,24.003 30.535,35.332 34.227,37.793 4.8,3.457 8.988,4.445 11.699,4.445 5.91,0 9.476,-3.82 9.476,-8.985 0,-1.855 -0.363,-3.945 -0.859,-5.675 l -27.207,-95.164 c -1.477,-4.922 -2.098,-10.461 -2.098,-12.317 0,-9.969 6.278,-15.879 15.516,-15.879 4.43,0 10.094,1.231 18.223,6.524 9.972,6.269 18.589,14.152 26.472,24.258 l -5.172,5.05 c -4.8,-5.304 -8.742,-11.328 -15.019,-15.273 -2.961,-1.973 -4.43,-2.09 -5.914,-2.09 -3.696,0 -5.785,2.09 -5.785,5.176 0,2.336 0.621,3.562 1.48,6.883 l 25.477,88.285 c 2.222,8.367 3.082,15.879 3.082,17.965 0,14.043 -8.493,22.414 -20.68,22.414 -4.559,0 -6.902,-0.246 -16.504,-4.805 -3.816,-1.965 -8.738,-5.051 -21.918,-16.613 -8.98,-7.879 -19.32,-18.594 -25.601,-26.356 -4.559,-5.539 -8.129,-10.832 -12.321,-16.496 l 19.094,66.485 -50.238,-9.11 -1.473,-5.664 5.41,0.731 c 1.11,0.253 2.34,0.253 3.332,0.253 5.535,0 8.367,-2.957 8.367,-8.125 0,-1.718 -0.371,-5.046 -2.089,-11.941 L 728.82,827.723"
       style="fill:#ffffff;fill-opacity:1;fill-rule:evenodd;stroke:none"
       transform="matrix(0.13333333,0,0,-0.13333333,0,264.56)" />
    <path
       id="path8"
       d="m 202.969,566.133 c -12.559,-15.031 -15.879,-17.727 -18.219,-19.57 -3.82,-2.961 -5.91,-3.575 -7.512,-3.575 -4.191,0 -6.769,2.703 -6.769,6.407 0,0.847 0,2.332 1.719,8.242 l 32.632,113.269 h 23.016 l 3.941,12.805 h -23.386 l 10.828,38.293 h -9.848 c -9.973,-22.902 -27.082,-37.055 -51.344,-42.973 l -2.339,-8.125 h 21.804 L 147.57,566.633 c -2.101,-6.781 -4.441,-13.43 -4.441,-20.813 0,-16.621 12.809,-21.054 19.09,-21.054 4.308,0 8.738,1.23 14.16,5.047 17.601,12.55 30.902,33.617 30.902,33.617 z m 45.929,-38.653 h 27.7 c 10.465,42.84 24.011,74.844 38.66,99.715 8.121,13.789 11.453,18.469 15.633,23.645 1.105,1.473 3.328,4.187 5.047,5.422 0.371,0.23 0.992,0.601 1.851,0.601 1.973,0 2.582,-2.09 4.063,-6.023 1.843,-4.805 6.156,-7.766 10.586,-7.766 9.605,0 17.363,13.188 17.363,25.489 0,11.828 -6.535,17.246 -13.539,17.246 -3.824,0 -20.574,-0.625 -51.711,-59.215 l 15.879,60.449 -50.731,-9.602 -1.719,-6.046 7.137,1.234 c 0.981,0 2.461,0.133 3.571,0.133 5.789,0 8.992,-3.082 8.992,-7.879 0,-3.82 -2.098,-10.711 -2.59,-11.699 z m 145.653,79.903 c 8.246,30.527 24.621,50.965 37.551,59.961 9.476,6.765 16.738,8.359 21.164,8.359 8.132,0 14.043,-5.422 14.043,-14.765 0,-8.379 -5.539,-23.27 -19.95,-35.833 -11.203,-9.843 -29.3,-17.605 -52.808,-17.722 z m -2.594,-10.711 c 53.934,-0.863 98.133,27.449 98.133,59.59 0,16.129 -11.699,29.547 -34.352,29.547 -13.55,0 -25.488,-5.047 -36.816,-12.196 -34.473,-21.054 -56.879,-62.922 -56.879,-97.383 0,-19.707 6.277,-32.011 16.746,-40.996 7.996,-6.777 18.461,-10.468 30.277,-10.468 14.043,0 26.231,5.047 37.684,12.547 8.367,5.421 19.207,14.171 26.098,21.554 l -3.938,4.563 c -20.441,-16.867 -33.613,-20.071 -45.18,-20.071 -19.578,0 -33.621,12.305 -33.621,38.536 0,4.921 0.618,10.214 1.848,14.777 z M 510.16,527.48 h 26.957 l 10.223,35.079 c 4.801,16.629 17.359,42.722 29.668,59.218 17.363,24.016 30.531,35.34 34.351,37.801 4.797,3.449 8.989,4.445 11.7,4.445 5.781,0 9.347,-3.828 9.347,-8.996 0,-1.843 -0.363,-3.933 -0.726,-5.672 l -27.211,-95.167 c -1.481,-4.922 -2.102,-10.458 -2.102,-12.301 0,-9.985 6.281,-15.891 15.391,-15.891 4.43,0 10.097,1.231 18.219,6.524 10.101,6.281 18.605,14.16 26.601,24.257 l -5.297,5.047 c -4.801,-5.301 -8.742,-11.324 -15.019,-15.261 -2.953,-1.973 -4.434,-2.09 -5.782,-2.09 -3.82,0 -5.914,2.09 -5.914,5.164 0,2.343 0.61,3.566 1.477,6.886 l 25.488,88.29 c 2.336,8.371 3.196,15.871 3.196,17.96 0,14.043 -8.618,22.411 -20.809,22.411 -4.547,0 -6.891,-0.235 -16.488,-4.793 -3.703,-1.973 -8.75,-5.047 -21.922,-16.621 -8.988,-7.883 -19.207,-18.594 -25.488,-26.348 -4.672,-5.535 -8.118,-10.828 -12.309,-16.504 l 18.961,66.492 -50.234,-9.109 -1.348,-5.672 5.41,0.738 c 0.992,0.246 2.223,0.246 3.328,0.246 5.41,0 8.371,-2.961 8.371,-8.125 0,-1.718 -0.488,-5.05 -2.09,-11.933 z m 183.938,0 h 26.961 l 10.339,35.079 c 4.797,16.629 17.364,42.722 29.672,59.218 17.36,24.016 30.535,35.34 34.227,37.801 4.801,3.449 8.992,4.445 11.824,4.445 5.789,0 9.359,-3.828 9.359,-8.996 0,-1.843 -0.371,-3.933 -0.859,-5.672 l -27.215,-95.167 c -1.476,-4.922 -2.097,-10.458 -2.097,-12.301 0,-9.985 6.281,-15.891 15.523,-15.891 4.43,0 10.086,1.231 18.219,6.524 9.969,6.281 18.586,14.16 26.59,24.257 l -5.293,5.047 c -4.801,-5.301 -8.739,-11.324 -15.02,-15.261 -2.957,-1.973 -4.43,-2.09 -5.906,-2.09 -3.703,0 -5.793,2.09 -5.793,5.164 0,2.343 0.621,3.566 1.48,6.886 l 25.477,88.29 c 2.223,8.371 3.082,15.871 3.082,17.96 0,14.043 -8.492,22.411 -20.68,22.411 -4.558,0 -6.898,-0.235 -16.496,-4.793 -3.824,-1.973 -8.742,-5.047 -21.91,-16.621 -8.996,-7.883 -19.332,-18.594 -25.609,-26.348 -4.563,-5.535 -8.133,-10.828 -12.325,-16.504 l 19.09,66.492 -50.238,-9.109 -1.469,-5.672 5.41,0.738 c 1.106,0.246 2.336,0.246 3.446,0.246 5.422,0 8.254,-2.961 8.254,-8.125 0,-1.718 -0.371,-5.05 -1.969,-11.933 L 694.098,527.48"
       style="fill:#ffffff;fill-opacity:1;fill-rule:evenodd;stroke:none"
       transform="matrix(0.13333333,0,0,-0.13333333,0,264.56)" />
    <path
       id="path9"
       d="m 200.012,149.324 c -17.422,0 -35.285,15.117 -35.285,43.203 0,27.793 18.156,43.059 34.711,43.059 17.128,0 33.55,-13.684 33.55,-42.91 0,-30.391 -16.558,-43.352 -32.976,-43.352 z m -56.883,-17.129 h 21.031 c 0.567,7.2 0.719,11.368 1.012,17.563 10.508,-13.528 24.906,-20.305 38.875,-20.305 26.641,0 52.273,21.317 52.273,64.52 0,38.879 -25.488,60.91 -53.285,60.91 -13.969,0 -27.644,-6.621 -37.726,-19.871 v 73.433 H 143.418 V 163.438 c 0.152,-10.364 0.152,-20.879 -0.289,-31.243 z m 190.519,14.836 c -18,0 -36.441,15.41 -36.441,45.36 0,23.468 12.965,44.922 36.293,44.922 26.637,0 37.148,-26.629 37.148,-45.215 0,-24.051 -13.242,-45.067 -37,-45.067 z m 0.723,-17.433 c 33.551,0 59.469,24.922 59.469,62.355 0,37.727 -25.781,62.645 -60.481,62.645 -33.269,0 -59.332,-24.918 -59.332,-62.5 0,-37.442 25.489,-62.5 60.344,-62.5 z m 80.199,2.597 h 21.75 v 56.301 c 0,19.149 3.739,27.938 8.489,34.559 6.48,8.781 14.257,12.383 23.191,12.383 13.816,0 21.449,-7.477 24.617,-20.301 0.723,-2.586 1.442,-6.477 1.442,-17.414 v -65.528 h 21.601 v 67.825 c 0,28.074 -6.328,37.722 -14.691,45.07 -6.91,6.051 -15.84,9.508 -27.071,9.508 -15.117,0 -28.507,-6.766 -37.73,-19.012 v 72.859 H 414.57 Z m 126.442,0 h 21.738 v 55.727 c 0,18.863 2.738,25.484 6.906,31.824 6.633,10.516 16.422,15.41 26.793,15.41 4.172,0 8.199,-0.871 11.949,-2.441 v 20.293 c -3.75,1.015 -7.777,1.59 -12.097,1.59 -14.973,0 -27.653,-7.645 -35.281,-23.035 0,1.867 -0.293,6.179 -1.008,20.441 H 540 c 0.719,-13.535 1.012,-27.649 1.012,-37.871 z m 98.484,69.555 c 0.875,9.93 8.074,35.563 30.965,35.563 15.695,0 29.227,-10.79 29.809,-35.563 z m -0.285,-16.848 h 83.957 c 2.16,42.332 -17.859,69.696 -51.699,69.696 -29.379,0 -54.578,-22.325 -54.578,-62.071 0,-39.168 24.629,-63.074 59.617,-63.074 12.379,0 25.344,2.742 36.863,8.215 l 0.438,20.73 c -12.957,-8.054 -25.918,-11.23 -34.848,-11.23 -21.754,0 -38.16,15.117 -39.75,37.734 z M 747.07,132.195 h 21.598 v 55.157 c 0,22.035 4.461,30.957 9.07,36.566 6.481,8.211 15.117,12.098 24.481,12.098 13.109,0 25.062,-9.075 25.062,-33.547 v -70.274 h 21.309 v 72.434 c 0,34.988 -17.422,50.254 -43.492,50.254 -14.246,0 -28.082,-6.621 -38.008,-19.727 0,6.192 -0.293,10.653 -1.012,17.129 h -20.019 c 0.871,-25.488 1.011,-34.98 1.011,-38.152 z m 150.621,50.254 h 59.325 v 17.864 h -59.325 z m 107.139,-45.066 c 10.22,-5.188 21.89,-7.785 31.25,-7.785 28.08,0 42.62,16.847 42.62,36.437 0,12.957 -5.18,23.047 -21.89,31.965 l -11.08,5.906 c -4.61,2.586 -16.42,7.196 -16.42,18.289 0,7.774 6.48,15.403 19.15,15.403 4.18,0 12.53,-1.289 23.91,-6.485 l 2.3,18.008 c -11.23,4.18 -21.74,5.762 -28.22,5.762 -26.36,0 -40.32,-15.695 -40.32,-35.285 0,-10.36 3.02,-21.305 25.34,-33.543 L 1042.41,180 c 10.8,-6.035 13.11,-11.66 13.11,-16.992 0,-7.051 -7.2,-15.695 -20.74,-15.695 -6.19,0 -17.28,2.597 -28.65,9.21 z m 181.44,-1.875 -1.73,20.449 c -11.22,-5.039 -20.73,-6.633 -27.06,-6.633 -18.6,0 -36.3,16.137 -36.3,41.914 0,27.934 17.7,44.067 39.31,44.067 7.64,0 15.27,-2.453 21.6,-6.782 l 1.3,20.743 c -8.06,3.605 -16.42,5.332 -25.2,5.332 -34.7,0 -59.76,-24.481 -59.76,-62.793 0,-38.297 24.91,-62.059 60.48,-62.059 9.49,0 18.59,1.875 27.36,5.762 z m 23.34,-3.313 h 21.72 v 56.301 c 0,19.149 3.75,27.938 8.51,34.559 6.48,8.781 14.25,12.383 23.18,12.383 13.83,0 21.46,-7.477 24.63,-20.301 0.71,-2.586 1.44,-6.477 1.44,-17.414 v -65.528 h 21.6 v 67.825 c 0,28.074 -6.34,37.722 -14.69,45.07 -6.91,6.051 -15.84,9.508 -27.07,9.508 -15.12,0 -28.52,-6.766 -37.73,-19.012 v 72.859 h -21.59 z m 126.42,0 h 21.59 v 55.157 c 0,22.035 4.47,30.957 9.08,36.566 6.48,8.211 15.12,12.098 24.48,12.098 13.1,0 25.07,-9.075 25.07,-33.547 v -70.274 h 21.3 v 72.434 c 0,34.988 -17.43,50.254 -43.49,50.254 -14.25,0 -28.09,-6.621 -38.01,-19.727 0,6.192 -0.29,10.653 -1.01,17.129 h -20.02 c 0.87,-25.488 1.01,-34.98 1.01,-38.152 z m 145.44,69.555 c 0.86,9.93 8.06,35.563 30.96,35.563 15.7,0 29.23,-10.79 29.81,-35.563 z m -0.29,-16.848 h 83.94 c 2.17,42.332 -17.84,69.696 -51.69,69.696 -29.37,0 -54.57,-22.325 -54.57,-62.071 0,-39.168 24.63,-63.074 59.61,-63.074 12.39,0 25.35,2.742 36.87,8.215 l 0.43,20.73 c -12.96,-8.054 -25.92,-11.23 -34.84,-11.23 -21.75,0 -38.16,15.117 -39.75,37.734 z m 106.85,98.633 h 23.75 v 24.348 h -23.75 z m 1.15,-151.34 h 21.6 v 119.66 h -21.6 z m 91.72,17.285 c -16.55,0 -33.11,13.243 -33.11,43.047 0,30.246 16.13,43.059 32.98,43.059 17.55,0 35.28,-15.41 35.28,-42.481 0,-28.8 -18.01,-43.625 -35.15,-43.625 z m 35.29,-17.285 h 21.6 c -0.72,8.489 -1.01,12.668 -1.01,31.399 v 144.851 h -21.45 v -73.867 c -9.8,13.684 -23.33,20.305 -37.88,20.305 -28.51,0 -53.13,-21.453 -53.13,-62.063 0,-40.613 25.92,-63.222 52.7,-63.222 13.68,0 27.36,6.203 38.31,19.882 -0.15,-6.199 0.28,-11.96 0.86,-17.285 z m 65.66,69.555 c 0.87,9.93 8.07,35.563 30.96,35.563 15.7,0 29.24,-10.79 29.8,-35.563 z m -0.28,-16.848 h 83.95 c 2.16,42.332 -17.86,69.696 -51.7,69.696 -29.37,0 -54.58,-22.325 -54.58,-62.071 0,-39.168 24.62,-63.074 59.62,-63.074 12.39,0 25.35,2.742 36.87,8.215 l 0.43,20.73 c -12.96,-8.054 -25.92,-11.23 -34.85,-11.23 -21.74,0 -38.16,15.117 -39.74,37.734 z m 107.85,-52.707 h 21.6 v 55.157 c 0,22.035 4.47,30.957 9.06,36.566 6.49,8.211 15.13,12.098 24.49,12.098 13.11,0 25.06,-9.075 25.06,-33.547 v -70.274 h 21.3 v 72.434 c 0,34.988 -17.41,50.254 -43.48,50.254 -14.25,0 -28.08,-6.621 -38.01,-19.727 0,6.192 -0.28,10.653 -1.01,17.129 h -20.03 c 0.88,-25.488 1.02,-34.98 1.02,-38.152 v -81.938"
       style="fill:#231f20;fill-opacity:1;fill-rule:evenodd;stroke:none"
       transform="matrix(0.13333333,0,0,-0.13333333,0,264.56)" />
  </g>
</svg>
